<?xml version="1.0" encoding="UTF-8"?>
<svg id="Livello_1" xmlns="http://www.w3.org/2000/svg" version="1.1" viewBox="0 0 128 21">
  <!-- Generator: Adobe Illustrator 30.3.0, SVG Export Plug-In . SVG Version: 2.1.3 Build 182)  -->
  <defs>
    <style>
      .st0 {
        fill: none;
      }

      .st1 {
        fill: #2563eb;
      }
    </style>
  </defs>
  <path class="st0" d="M28.63,6.08c-.73-.46-1.59-.7-2.57-.7s-1.85.24-2.57.7c-.73.47-1.3,1.1-1.7,1.87-.4.78-.6,1.68-.6,2.59s.2,1.77.6,2.55c.4.78.97,1.4,1.7,1.87.73.46,1.59.7,2.57.7s1.85-.24,2.57-.7c.73-.47,1.3-1.1,1.7-1.87.4-.77.6-1.61.6-2.55s-.2-1.81-.6-2.59c-.4-.78-.97-1.4-1.7-1.87Z"/>
  <path class="st0" d="M45.39,6.08c-.73-.46-1.59-.7-2.57-.7s-1.85.24-2.57.7c-.73.47-1.3,1.1-1.7,1.87-.4.78-.6,1.68-.6,2.59s.2,1.77.6,2.55c.4.78.97,1.4,1.7,1.87.73.46,1.59.7,2.57.7s1.85-.24,2.57-.7c.73-.47,1.3-1.1,1.7-1.87.4-.77.6-1.61.6-2.55s-.2-1.81-.6-2.59c-.4-.78-.97-1.4-1.7-1.87Z"/>
  <path class="st0" d="M75.3,6.08c-.73-.46-1.59-.7-2.57-.7s-1.85.24-2.57.7c-.73.47-1.3,1.1-1.7,1.87-.4.78-.6,1.68-.6,2.59s.2,1.77.6,2.55c.4.78.97,1.4,1.7,1.87.73.46,1.59.7,2.57.7s1.85-.24,2.57-.7c.73-.47,1.3-1.1,1.7-1.87.4-.77.6-1.61.6-2.55s-.2-1.81-.6-2.59c-.4-.78-.97-1.4-1.7-1.87Z"/>
  <path class="st1" d="M105.81,9.42v-.02h-.01c-.99-.63-2.44-1.19-4.3-1.65-1.32-.34-1.8-.63-1.97-.81-.24-.25-.35-.48-.35-.72,0-.48.17-.8.53-1.02.4-.24.91-.36,1.54-.36.58,0,1.13.15,1.65.44.52.29,1.01.78,1.44,1.46l.17.27,4.06-3.1-.18-.23c-1-1.3-2.08-2.19-3.21-2.67-1.12-.47-2.48-.71-4.04-.71-2.27,0-4.07.58-5.37,1.73-.81.72-1.38,1.56-1.69,2.5V.34c-.28-.02-.54-.05-.83-.05-1.98,0-3.78.47-5.34,1.38-1.57.92-2.81,2.16-3.69,3.69-.65,1.13-1.06,2.35-1.23,3.67-.18-1.28-.58-2.49-1.22-3.61-.88-1.54-2.12-2.79-3.67-3.7h0c-1.55-.93-3.36-1.39-5.36-1.39s-3.78.47-5.34,1.38c-1.57.92-2.81,2.17-3.69,3.71-.88,1.54-1.33,3.26-1.33,5.12s.44,3.55,1.31,5.06c-.02,0-.03,0-.05,0l.02.03c-.1,0-.2.03-.31.03-.98,0-1.84-.24-2.57-.7-.73-.47-1.3-1.09-1.7-1.87-.4-.78-.6-1.64-.6-2.55V1.08h-5.49v7.49c-.21-1.11-.57-2.17-1.13-3.15-.88-1.54-2.12-2.79-3.67-3.7h0c-1.55-.93-3.36-1.39-5.36-1.39s-3.78.47-5.34,1.38c-1.21.71-2.23,1.63-3.03,2.72-.8-1.09-1.81-2-3.01-2.72-1.55-.92-3.36-1.38-5.36-1.38s-3.78.47-5.34,1.38c-1.57.92-2.81,2.17-3.69,3.71-.83,1.45-1.26,3.07-1.31,4.81h-.02v.3c0,.92-.2,1.77-.6,2.55-.4.77-.97,1.4-1.7,1.87-.72.46-1.59.7-2.57.7s-1.84-.24-2.57-.7c-.73-.47-1.3-1.09-1.7-1.87-.4-.78-.6-1.64-.6-2.55s.2-1.81.6-2.59c.4-.77.97-1.4,1.7-1.87.72-.46,1.59-.7,2.57-.7s1.84.24,2.6.72l2.77-4.39c-1.55-.92-3.36-1.38-5.36-1.38s-3.78.47-5.34,1.38c-1.57.92-2.81,2.17-3.69,3.71-.88,1.54-1.33,3.26-1.33,5.12s.45,3.58,1.33,5.11c.88,1.53,2.12,2.77,3.69,3.69,1.56.92,3.36,1.38,5.34,1.38s3.81-.47,5.36-1.38c.85-.5,1.59-1.11,2.24-1.8.66.7,1.41,1.31,2.27,1.81,1.56.92,3.36,1.38,5.34,1.38s3.81-.47,5.37-1.38c1.2-.71,2.21-1.62,3.01-2.71.81,1.08,1.82,1.99,3.03,2.71,1.56.92,3.36,1.38,5.34,1.38s3.81-.47,5.36-1.38c1.55-.92,2.78-2.16,3.67-3.69.65-1.12,1.06-2.35,1.23-3.66.17,1.31.58,2.54,1.23,3.66.88,1.53,2.12,2.77,3.69,3.69,1.56.92,3.36,1.38,5.34,1.38.28,0,.55-.03.83-.05v-4.33c.84,1.21,1.9,2.23,3.22,3,1.56.92,3.36,1.38,5.34,1.38s3.81-.47,5.36-1.38c1.55-.92,2.78-2.16,3.67-3.69.55-.96.91-1.99,1.12-3.08v7.36h5.49v-9.46c0-.92.2-1.77.6-2.55.4-.77.97-1.4,1.7-1.87.72-.46,1.59-.7,2.57-.7.22,0,.42.03.63.05-.05.32-.08.64-.08.98,0,.83.14,1.64.42,2.42.28.8.87,1.53,1.74,2.18.85.63,2.16,1.16,3.89,1.58.97.21,1.7.43,2.18.64.55.24.77.45.85.58.13.19.19.43.19.71,0,.47-.19.85-.57,1.17-.39.33-.98.49-1.75.49-1.48,0-2.9-.75-4.21-2.23l-.2-.22-3.75,3.42.2.22c2.11,2.26,4.82,3.4,8.06,3.4,1.44,0,2.75-.28,3.89-.83,1.14-.55,2.06-1.32,2.73-2.28.67-.97,1.02-2.08,1.02-3.29,0-.99-.19-1.9-.57-2.71-.39-.82-1.09-1.57-2.11-2.21ZM30.33,13.09c-.4.77-.97,1.4-1.7,1.87-.72.46-1.59.7-2.57.7s-1.84-.24-2.57-.7c-.73-.47-1.3-1.09-1.7-1.87-.4-.78-.6-1.64-.6-2.55s.2-1.81.6-2.59c.4-.77.97-1.4,1.7-1.87.72-.46,1.59-.7,2.57-.7s1.84.24,2.57.7c.73.47,1.3,1.09,1.7,1.87.4.78.6,1.65.6,2.59s-.2,1.78-.6,2.55ZM47.09,13.09c-.4.77-.97,1.4-1.7,1.87-.72.46-1.59.7-2.57.7s-1.84-.24-2.57-.7c-.73-.47-1.3-1.09-1.7-1.87-.4-.78-.6-1.64-.6-2.55s.2-1.81.6-2.59c.4-.77.97-1.4,1.7-1.87.72-.46,1.59-.7,2.57-.7s1.84.24,2.57.7c.73.47,1.3,1.09,1.7,1.87.4.78.6,1.65.6,2.59s-.2,1.78-.6,2.55ZM77,13.09c-.4.77-.97,1.4-1.7,1.87-.72.46-1.59.7-2.57.7s-1.84-.24-2.57-.7c-.73-.47-1.3-1.09-1.7-1.87-.4-.78-.6-1.64-.6-2.55s.2-1.81.6-2.59c.4-.77.97-1.4,1.7-1.87.72-.46,1.59-.7,2.57-.7s1.84.24,2.57.7c.73.47,1.3,1.09,1.7,1.87.4.78.6,1.65.6,2.59s-.2,1.78-.6,2.55Z"/>
</svg>